<svg width="0" height="0" class="hidden">
  <symbol  xmlns="http://www.w3.org/2000/svg" viewBox="0 0 24 24" id="close-icon">
    <path d="M 4.7070312 3.2929688 L 3.2929688 4.7070312 L 10.585938 12 L 3.2929688 19.292969 L 4.7070312 20.707031 L 12 13.414062 L 19.292969 20.707031 L 20.707031 19.292969 L 13.414062 12 L 20.707031 4.7070312 L 19.292969 3.2929688 L 12 10.585938 L 4.7070312 3.2929688 z"></path>
  </symbol>
  <symbol fill="none" xmlns="http://www.w3.org/2000/svg" viewBox="0 0 16 14" id="heart">
    <path d="M8 14C7.88969 14 7.77981 13.9617 7.69147 13.8847C7.00941 13.2909 6.36075 12.7404 5.75056 12.2227C2.30678 9.30098 0 7.3705 0 4.55821C0 1.95963 1.84491 0 4.25 0C6.14559 0 7.36234 1.31843 8 2.5056C8.63766 1.31843 9.85441 0 11.75 0C14.1551 0 16 1.95963 16 4.55821C16 7.37053 13.6932 9.30098 10.2494 12.2227C9.63925 12.7404 8.99059 13.2909 8.30853 13.8847C8.22019 13.9617 8.11031 14 8 14Z" fill="#BBBBBB"></path>
  </symbol>
  <symbol  xmlns="http://www.w3.org/2000/svg" viewBox="0 0 30 30" id="menu-icon">
    <path d="M 3 7 A 1.0001 1.0001 0 1 0 3 9 L 27 9 A 1.0001 1.0001 0 1 0 27 7 L 3 7 z M 3 14 A 1.0001 1.0001 0 1 0 3 16 L 27 16 A 1.0001 1.0001 0 1 0 27 14 L 3 14 z M 3 21 A 1.0001 1.0001 0 1 0 3 23 L 27 23 A 1.0001 1.0001 0 1 0 27 21 L 3 21 z"></path>
  </symbol>
    <symbol  fill="none" xmlns="http://www.w3.org/2000/svg" viewBox="0 0 14 15" id="search">
    <path d="M5.73047 10.7532C8.34303 10.7532 10.4609 8.5699 10.4609 5.87662C10.4609 3.18334 8.34303 1 5.73047 1C3.1179 1 1 3.18334 1 5.87662C1 8.5699 3.1179 10.7532 5.73047 10.7532Z" stroke="white" stroke-width="1.5" stroke-linecap="round" stroke-linejoin="round"/>
    <path d="M13.0367 13.2581L8.89764 9.60059" stroke="white" stroke-width="1.5" stroke-linecap="round" stroke-linejoin="round"/>
  </symbol>
</svg>