<svg width="0" height="0" class="hidden">
  <symbol  xmlns="http://www.w3.org/2000/svg" viewBox="0 0 24 24" id="close-icon">
    <path d="M 4.7070312 3.2929688 L 3.2929688 4.7070312 L 10.585938 12 L 3.2929688 19.292969 L 4.7070312 20.707031 L 12 13.414062 L 19.292969 20.707031 L 20.707031 19.292969 L 13.414062 12 L 20.707031 4.7070312 L 19.292969 3.2929688 L 12 10.585938 L 4.7070312 3.2929688 z"></path>
  </symbol>
  <symbol fill="none" xmlns="http://www.w3.org/2000/svg" viewBox="0 0 16 14" id="heart">
    <path d="M8 14C7.88969 14 7.77981 13.9617 7.69147 13.8847C7.00941 13.2909 6.36075 12.7404 5.75056 12.2227C2.30678 9.30098 0 7.3705 0 4.55821C0 1.95963 1.84491 0 4.25 0C6.14559 0 7.36234 1.31843 8 2.5056C8.63766 1.31843 9.85441 0 11.75 0C14.1551 0 16 1.95963 16 4.55821C16 7.37053 13.6932 9.30098 10.2494 12.2227C9.63925 12.7404 8.99059 13.2909 8.30853 13.8847C8.22019 13.9617 8.11031 14 8 14Z" fill="#BBBBBB"></path>
  </symbol>
  <symbol  xmlns="http://www.w3.org/2000/svg" viewBox="0 0 30 30" id="menu-icon">
    <path d="M 3 7 A 1.0001 1.0001 0 1 0 3 9 L 27 9 A 1.0001 1.0001 0 1 0 27 7 L 3 7 z M 3 14 A 1.0001 1.0001 0 1 0 3 16 L 27 16 A 1.0001 1.0001 0 1 0 27 14 L 3 14 z M 3 21 A 1.0001 1.0001 0 1 0 3 23 L 27 23 A 1.0001 1.0001 0 1 0 27 21 L 3 21 z"></path>
  </symbol>
    <symbol  fill="none" xmlns="http://www.w3.org/2000/svg" viewBox="0 0 14 15" id="search">
    <path d="M5.73047 10.7532C8.34303 10.7532 10.4609 8.5699 10.4609 5.87662C10.4609 3.18334 8.34303 1 5.73047 1C3.1179 1 1 3.18334 1 5.87662C1 8.5699 3.1179 10.7532 5.73047 10.7532Z" stroke="white" stroke-width="1.5" stroke-linecap="round" stroke-linejoin="round"/>
    <path d="M13.0367 13.2581L8.89764 9.60059" stroke="white" stroke-width="1.5" stroke-linecap="round" stroke-linejoin="round"/>
  </symbol>
    <symbol fill="none" xmlns="http://www.w3.org/2000/svg" viewBox="0 0 14 15" id="bathroom">
    <g opacity="0.7">
      <path d="M3.31579 0C2.09753 0 1.10526 0.992267 1.10526 2.21053V7.92105H1.84211V2.21053C1.84211 1.38773 2.493 0.736842 3.31579 0.736842C4.01002 0.736842 4.58167 1.20307 4.74342 1.84211H5.49178C5.31481 0.799459 4.4078 0 3.31579 0ZM5.15789 2.21053C4.34147 2.21053 3.68421 2.86779 3.68421 3.68421H6.63158C6.63158 2.86779 5.97432 2.21053 5.15789 2.21053ZM4.05263 4.42105C3.84915 4.42105 3.68421 4.586 3.68421 4.78947V5.1579C3.68421 5.36137 3.84915 5.52632 4.05263 5.52632C4.25611 5.52632 4.42105 5.36137 4.42105 5.1579V4.78947C4.42105 4.586 4.25611 4.42105 4.05263 4.42105ZM6.26316 4.42105C6.05968 4.42105 5.89474 4.586 5.89474 4.78947V5.1579C5.89474 5.36137 6.05968 5.52632 6.26316 5.52632C6.46664 5.52632 6.63158 5.36137 6.63158 5.1579V4.78947C6.63158 4.586 6.46664 4.42105 6.26316 4.42105ZM5.15789 5.71053C4.95442 5.71053 4.78947 5.87549 4.78947 6.07895V6.44737C4.78947 6.65085 4.95442 6.81579 5.15789 6.81579C5.36137 6.81579 5.52632 6.65085 5.52632 6.44737V6.07895C5.52632 5.87549 5.36137 5.71053 5.15789 5.71053ZM0 8.28947C0 10.8408 2.05395 12.8947 4.60526 12.8947H9.39474C11.9461 12.8947 14 10.8408 14 8.28947H0ZM3.73026 13.2632C3.8731 13.8995 4.37112 14.3684 4.97368 14.3684H9.02632C9.62888 14.3684 10.1269 13.8995 10.2697 13.2632H3.73026Z" fill="#030A1B"></path>
    </g>
  </symbol>
  <symbol fill="none" xmlns="http://www.w3.org/2000/svg" viewBox="0 0 13 15" id="kitchen">
    <g opacity="0.7">
      <path d="M3.91737 5.51655L5.21188 7.52527L6.11952 6.48371L4.76549 4.89161C5.34579 4.04349 5.197 2.64483 4.334 1.49912C3.3222 0.145095 1.70034 -0.375685 0.718303 0.353404C-0.263736 1.08249 -0.233974 2.77875 0.777824 4.13277C1.65571 5.29336 2.95021 5.82902 3.91737 5.51655Z" fill="#030A1B"></path>
      <path d="M7.77171 8.43262L6.78967 9.9652L9.17037 13.6404C9.5126 14.1761 10.2417 14.31 10.7625 13.9231L10.8517 13.8487C11.3576 13.4618 11.4469 12.7328 11.0303 12.2417L7.77171 8.43262Z" fill="#030A1B"></path>
      <path d="M12.9209 1.60347C12.7869 1.43979 12.534 1.45467 12.415 1.61834C12.415 1.61834 10.7187 3.79073 10.2426 4.40079C10.1682 4.49006 10.0343 4.50494 9.94498 4.44542C9.8557 4.37103 9.82595 4.25199 9.90034 4.14784L11.9388 1.27612C12.0281 1.15708 12.0281 0.978533 11.9239 0.859498C11.79 0.695825 11.5371 0.710701 11.418 0.874374C11.418 0.874374 9.7218 3.04676 9.24566 3.65682C9.17126 3.74609 9.03734 3.76097 8.94807 3.70145C8.85879 3.62706 8.82903 3.50802 8.90342 3.40387C9.36468 2.76405 10.9568 0.517274 10.9568 0.517274C11.0758 0.353601 11.0163 0.115524 10.8229 0.0262475C10.689 -0.03327 10.5253 0.01137 10.4211 0.130405L8.1297 3.07652L7.83212 3.46339C7.53453 3.86513 7.40061 4.34127 7.46013 4.7579L7.59404 5.6209L1.89524 12.2273C1.47862 12.7184 1.5679 13.4474 2.0738 13.8343L2.16307 13.9087C2.66897 14.2956 3.39806 14.1617 3.75516 13.626L8.45704 6.29047L9.33493 6.17144C9.75155 6.11192 10.1682 5.84409 10.4806 5.44234L10.7782 5.05548L12.9357 2.02009C13.025 1.90105 13.025 1.7225 12.9209 1.60347Z" fill="#030A1B"></path>
    </g>
  </symbol>
  <symbol fill="none" xmlns="http://www.w3.org/2000/svg" viewBox="0 0 17 13" id="living-room">
    <g opacity="0.5">
      <path d="M15.0787 5.11829H1.26238C0.56632 5.11829 0 5.68461 0 6.3807V9.75337H16.3411V6.3807C16.3411 5.68461 15.7748 5.11829 15.0787 5.11829Z" fill="#030A1B"></path>
      <path d="M8.64929 2.15326H12.6982V4.16091H8.64929V2.15326Z" fill="#030A1B"></path>
      <path d="M2.68531 1.1959H8.17045H13.6556V4.16104H14.8515V0H1.48944V4.16104H2.68531V1.1959Z" fill="#030A1B"></path>
      <path d="M3.6427 2.15326H7.69162V4.16091H3.6427V2.15326Z" fill="#030A1B"></path>
      <path d="M0.510681 10.7111H15.8299V12.185H0.510681V10.7111Z" fill="#030A1B"></path>
    </g>
  </symbol>
  <symbol fill="none" xmlns="http://www.w3.org/2000/svg" viewBox="0 0 11 15" id="location">
    <g opacity="0.7">
      <path d="M10.4672 3.16023C10.0669 2.27357 9.43292 1.51251 8.63319 0.958568C7.83346 0.404625 6.8981 0.0786712 5.9273 0.0156189C5.64307 -0.0052063 5.3577 -0.0052063 5.07347 0.0156189C4.10267 0.0786712 3.16731 0.404625 2.36758 0.958568C1.56785 1.51251 0.933873 2.27357 0.533559 3.16023C0.103591 4.08409 -0.0714897 5.10611 0.0264605 6.1204C0.124411 7.13469 0.491828 8.10433 1.09063 8.92883L5.07867 14.3642C5.12729 14.4304 5.19079 14.4842 5.26405 14.5213C5.33731 14.5584 5.41827 14.5777 5.50038 14.5777C5.5825 14.5777 5.66346 14.5584 5.73672 14.5213C5.80998 14.4842 5.87348 14.4304 5.9221 14.3642L9.91013 8.92883C10.5089 8.10433 10.8764 7.13469 10.9743 6.1204C11.0723 5.10611 10.8972 4.08409 10.4672 3.16023ZM5.50038 7.15103C5.16724 7.15103 4.84158 7.05224 4.56458 6.86716C4.28758 6.68208 4.07169 6.41901 3.9442 6.11122C3.81671 5.80344 3.78336 5.46476 3.84835 5.13802C3.91334 4.81128 4.07377 4.51115 4.30933 4.27558C4.5449 4.04001 4.84503 3.87959 5.17177 3.8146C5.49852 3.74961 5.83719 3.78296 6.14498 3.91045C6.45276 4.03794 6.71583 4.25383 6.90091 4.53083C7.086 4.80783 7.18478 5.13349 7.18478 5.46663C7.18491 5.68787 7.14144 5.90696 7.05683 6.11138C6.97223 6.3158 6.84816 6.50154 6.69173 6.65797C6.53529 6.81441 6.34955 6.93848 6.14513 7.02308C5.94071 7.10768 5.72162 7.15116 5.50038 7.15103Z" fill="#030A1B"></path>
    </g>
  </symbol>
</svg>